#!OML:ASF F:\VICON\USERDATA\INSTALL\rory3\rory3.ASF
:FULLY-SPECIFIED
:DEGREES
17
root 0.525853 17.7005 -25.2889 4.58039 -0.422785 -4.32319
lowerback 10.845 2.33181 6.65051
upperback 0.430251 4.0218 1.86094
thorax -5.31144 1.83459 -2.38224
lowerneck -20.214 -4.99359 -3.31893
upperneck 10.986 -6.44106 3.93053
head 6.8724 -2.88243 1.0594
rclavicle -6.65929e-015 -3.97569e-016
rhumerus -30.1852 16.5911 -97.0193
rradius 118.099
rwrist -16.234
rhand -18.3531 44.4871
rfingers 7.12502
rthumb 7.92954 14.6558
lclavicle -6.65929e-015 -3.97569e-016
lhumerus -62.9378 -9.12064 98.5096
lradius 108.304
lwrist 30.6397
lhand -19.7494 3.42748
lfingers 7.12502
lthumb 6.58169 33.3052
rfemur 8.64706 4.81297 34.5451
rtibia 33.8384
rfoot 0.565784 -1.22735
rtoes -16.0773
lfemur -44.4894 0.134074 -15.9745
ltibia 78.0385
lfoot -5.02605 -6.41954
ltoes -10.4397
18
root 0.532228 17.7981 -24.7435 4.35294 0.127766 -4.09645
lowerback 14.2813 2.04146 6.69159
upperback -1.85513 4.05159 1.44512
thorax -9.70519 1.61615 -3.1061
lowerneck -19.9643 -4.86461 -2.88815
upperneck 13.5813 -6.45629 3.66332
head 7.66415 -2.86677 0.882249
rclavicle 2.13694e-015 -4.37326e-015
rhumerus -34.0363 16.1224 -98.6402
rradius 118.355
rwrist -15.5558
rhand -17.9131 44.2625
rfingers 7.12502
rthumb 8.35424 14.4477
lclavicle 2.13694e-015 -4.37326e-015
lhumerus -67.174 -7.68495 97.8126
lradius 108.832
lwrist 31.0991
lhand -20.3117 3.65582
lfingers 7.12502
lthumb 6.03887 33.5498
rfemur 10.8393 4.52572 34.1033
rtibia 31.8522
rfoot 7.76947 0.212397
rtoes -11.518
lfemur -43.8343 -0.83066 -16.4683
ltibia 73.1772
lfoot -3.92068 -6.36189
ltoes -8.50973
19
root 0.542523 17.8911 -24.1853 4.25863 0.412603 -3.78506
lowerback 13.6513 2.10268 6.52466
upperback -1.90174 4.04324 1.33788
thorax -9.39472 1.63179 -3.0932
lowerneck -19.3863 -4.88941 -2.82662
upperneck 13.5949 -6.50782 3.58185
head 7.56833 -2.90453 0.85061
rclavicle 4.27884e-014 3.1408e-014
rhumerus -34.5151 16.2829 -98.5284
rradius 118.285
rwrist -15.3383
rhand -18.1888 44.2207
rfingers 7.12502
rthumb 8.08815 14.3955
lclavicle 4.27884e-014 3.1408e-014
lhumerus -67.8716 -6.58733 97.274
lradius 108.817
lwrist 31.7467
lhand -20.9744 3.56273
lfingers 7.12502
lthumb 5.3991 33.474
rfemur 12.7945 4.26446 33.3682
rtibia 30.0491
rfoot 13.7897 1.30155
rtoes -7.74054
lfemur -43.0328 -1.52914 -17.0577
ltibia 68.1004
lfoot -3.75589 -6.91327
ltoes -7.1012
20
root 0.552438 17.9869 -23.6199 4.30381 0.481251 -3.49021
lowerback 13.1273 2.25434 6.35776
upperback -2.12049 4.17219 1.17477
thorax -9.31802 1.69833 -3.1775
lowerneck -18.7218 -5.01572 -2.78692
upperneck 13.6784 -6.7055 3.55213
head 7.48809 -3.00827 0.823045
rclavicle 1.78409e-014 1.98785e-015
rhumerus -35.878 17.3285 -99.3503
rradius 118.063
rwrist -10.2085
rhand -24.1178 37.5756
rfingers 7.12502
rthumb 2.36359 7.60896
lclavicle 1.78409e-014 1.98785e-015
lhumerus -68.7083 -5.67323 96.7003
lradius 108.729
lwrist 32.3809
lhand -20.9903 3.26293
lfingers 7.12502
lthumb 5.3837 33.1745
rfemur 14.362 4.28452 32.6546
rtibia 28.7391
rfoot 18.1556 2.27465
rtoes -5.67288
lfemur -42.1269 -2.05381 -17.5718
ltibia 62.8576
lfoot -4.21283 -8.45441
ltoes -14.5792
21
root 0.555156 18.0655 -23.0799 4.26368 0.603061 -3.26671
lowerback 12.8646 2.34274 6.20826
upperback -2.20316 4.23712 1.04154
thorax -9.24953 1.73568 -3.23669
lowerneck -18.4561 -5.15928 -2.98796
upperneck 13.7346 -6.91573 3.87233
head 7.48856 -3.09133 0.93883
rclavicle -2.84262e-014 -1.15295e-014
rhumerus -36.11 16.6418 -98.6745
rradius 118.103
rwrist -14.4594
rhand -18.7337 42.1053
rfingers 7.12502
rthumb 7.56216 12.2605
lclavicle -2.84262e-014 -1.15295e-014
lhumerus -69.2807 -4.87311 96.1077
lradius 108.746
lwrist 32.718
lhand -21.3177 3.5139
lfingers 7.12502
lthumb 5.06757 33.4333
rfemur 15.6293 4.76899 32.3911
rtibia 28.1437
rfoot 21.431 3.10695
rtoes -1.09798
lfemur -41.1231 -2.65299 -17.9226
ltibia 57.5827
lfoot -4.62069 -8.0592
ltoes -19.9715
22
root 0.555723 18.1206 -22.5533 4.22506 0.850207 -3.07396
lowerback 12.6352 2.34596 6.02248
upperback -2.25262 4.18971 0.966494
thorax -9.18145 1.7232 -3.19239
lowerneck -18.0578 -5.18687 -3.16106
upperneck 13.5451 -6.96634 4.18052
head 7.37926 -3.10404 1.07114
rclavicle -1.05356e-014 1.98785e-015
rhumerus -36.9291 17.6185 -99.1283
rradius 117.872
rwrist -11.2355
rhand -22.374 38.7629
rfingers 7.12502
rthumb 4.0476 8.82155
lclavicle -1.05356e-014 1.98785e-015
lhumerus -69.8005 -4.02516 95.4915
lradius 108.901
lwrist 32.8992
lhand -20.774 3.7806
lfingers 7.12502
lthumb 5.59256 33.6868
rfemur 16.5575 5.55294 32.5117
rtibia 28.2909
rfoot 23.7259 4.01944
rtoes 3.93114
lfemur -40.1576 -3.25767 -18.2313
ltibia 52.3788
lfoot -4.23057 -8.51036
ltoes -18.5471
23
root 0.55819 18.1559 -22.0289 4.33944 0.953906 -3.02026
lowerback 12.3544 2.38597 5.93443
upperback -2.38479 4.21275 0.938343
thorax -9.16522 1.73731 -3.16521
lowerneck -17.4616 -5.15929 -3.28262
upperneck 13.173 -6.94084 4.4276
head 7.16987 -3.09012 1.19009
rclavicle -1.50331e-014 -8.74653e-015
rhumerus -37.4492 17.5456 -98.9062
rradius 117.785
rwrist -13.3845
rhand -19.9016 41.9759
rfingers 7.12502
rthumb 6.43479 12.0936
lclavicle -1.50331e-014 -8.74653e-015
lhumerus -70.1495 -3.09317 94.8623
lradius 108.925
lwrist 32.8971
lhand -20.0897 3.99379
lfingers 7.12502
lthumb 6.25326 33.8815
rfemur 17.019 6.54428 32.8259
rtibia 29.1679
rfoot 22.9347 6.63738
rtoes 2.73351
lfemur -39.3394 -3.55963 -18.3865
ltibia 47.3152
lfoot -3.66761 -8.90526
ltoes -12.1219
24
root 0.55375 18.1939 -21.5009 4.512 0.736257 -3.18396
lowerback 12.0099 2.57376 5.9703
upperback -2.45563 4.44491 0.915904
thorax -9.01704 1.85229 -3.23269
lowerneck -17.5267 -5.16654 -3.30922
upperneck 13.3775 -6.99016 4.64106
head 7.25947 -3.09104 1.25455
rclavicle -6.85807e-015 -1.23246e-014
rhumerus -38.3767 18.4094 -99.5839
rradius 117.219
rwrist -9.53335
rhand -24.4118 36.5167
rfingers 7.12502
rthumb 2.07968 6.5471
lclavicle -6.85807e-015 -1.23246e-014
lhumerus -70.4066 -2.41194 94.2642
lradius 109.065
lwrist 32.6322
lhand -19.6354 3.93919
lfingers 7.12502
lthumb 6.69179 33.8135
rfemur 17.1114 7.67462 33.3366
rtibia 30.654
rfoot 23.9331 2.51231
rtoes 8.77569
lfemur -38.4162 -3.51524 -18.2277
ltibia 42.4015
lfoot -2.96031 -9.43489
ltoes -9.56638
25
root 0.549391 18.2293 -20.9754 4.76472 0.370915 -3.32419
lowerback 11.6775 2.82264 5.94058
upperback -2.57517 4.74871 0.852709
thorax -8.92319 2.00143 -3.31996
lowerneck -17.5582 -5.18766 -3.4378
upperneck 13.675 -7.08383 5.09958
head 7.38996 -3.09408 1.40995
rclavicle 2.4699e-014 8.34896e-015
rhumerus -38.5473 17.3789 -98.8126
rradius 117.458
rwrist -15.6853
rhand -17.5777 41.1065
rfingers 7.12502
rthumb 8.67785 11.3048
lclavicle 2.4699e-014 8.34896e-015
lhumerus -70.8313 -1.8709 93.6509
lradius 109.363
lwrist 32.2875
lhand -19.4407 3.42406
lfingers 7.12502
lthumb 6.87975 33.2923
rfemur 16.8812 8.58596 33.6225
rtibia 32.5337
rfoot 24.6459 -0.607579
rtoes 9.93662
lfemur -37.5845 -3.15588 -18.1991
ltibia 38.0066
lfoot -2.34404 -9.51485
ltoes -7.39994
26
root 0.548695 18.245 -20.4579 4.95061 -0.00410721 -3.39069
lowerback 11.8244 3.01279 5.94952
upperback -2.89897 5.01587 0.661511
thorax -9.32088 2.10115 -3.6001
lowerneck -16.895 -5.1849 -3.37471
upperneck 13.3072 -7.17416 5.55515
head 7.17799 -3.11042 1.55366
rclavicle -5.09386e-015 -5.96354e-015
rhumerus -39.4927 17.1569 -99.1818
rradius 117.19
rwrist -16.1549
rhand -16.48 40.9711
rfingers 7.12502
rthumb 9.73708 11.2162
lclavicle -5.09386e-015 -5.96354e-015
lhumerus -71.3862 -1.41661 92.9303
lradius 109.517
lwrist 31.7649
lhand -19.3483 2.98003
lfingers 7.12502
lthumb 6.96894 32.8453
rfemur 16.4726 9.19497 33.6725
rtibia 34.7855
rfoot 25.3805 -2.42083
rtoes 11.8444
lfemur -36.8332 -2.63438 -18.4423
ltibia 34.083
lfoot -1.58942 -8.75783
ltoes -0.70382
27
root 0.543767 18.2383 -19.9499 4.90987 -0.313938 -3.82726
lowerback 12.102 3.16736 6.28691
upperback -2.80568 5.28655 0.618604
thorax -9.32079 2.21183 -3.89851
lowerneck -17.2809 -5.2625 -3.07068
upperneck 12.7684 -7.33836 5.7014
head 7.07068 -3.16223 1.52897
rclavicle 5.96106e-014 1.94809e-014
rhumerus -39.8858 16.9525 -99.4467
rradius 116.568
rwrist -15.3519
rhand -16.2861 40.8078
rfingers 7.12502
rthumb 9.9241 11.0617
lclavicle 5.96106e-014 1.94809e-014
lhumerus -70.9437 -1.03333 92.3426
lradius 109.411
lwrist 31.1802
lhand -19.4534 3.02994
lfingers 7.12502
lthumb 6.8675 32.8986
rfemur 16.1371 9.62646 34.1471
rtibia 37.2122
rfoot 25.5036 -3.88969
rtoes 16.1319
lfemur -35.7818 -0.93268 -19.0707
ltibia 31.3104
lfoot -3.62231 -8.39877
ltoes -17.182
